# xmcd CD database file
#
# Track frame offsets:
#	150
#	14311
#	36347
#	53175
#	67653
#	83199
#	99993
#	114534
#	133768
#	150663
#	166532
#	182816
#	193713
#	213973
#	227110
#	245779
#	258128
#	274328
#	288678
#	304745
#	323914
#	335267
#
# Disc length: 4646 seconds
#
# Revision: 0
# Processed by: cddbd v1.5.1PL2 Copyright (c) Steve Scherf et al.
# Submitted via: CDex 1.50
#
DISCID=36122416
DTITLE=Linedance - Workshop 3
DYEAR=1900
DGENRE=Country
TTITLE0=Ladies Night - Atomic Kitten
TTITLE1=The Times of my Life - Bill Medley, Jennifer Warnes
TTITLE2=Trail of Tears - Bill Ray Cyrus
TTITLE3=Going Back West - Bonny M
TTITLE4=One Step Forward - Desert Rose Band
TTITLE5=Lower East Side - Eric Heatherly
TTITLE6=Big Boy Toys - Aaron Tippin
TTITLE7=It´s Raining Men - Geri Halliwell
TTITLE8=Days go by - Keith Urban
TTITLE9=Live zo love another Day - Keith Urban
TTITLE10=Can´t fight the Moonlight - Leann Rimes
TTITLE11=Cry of the Celts (Step Version) - John Hardimann
TTITLE12=Cry of the Celts - John Hardimann
TTITLE13=Rose Garden - Lynn Anderson
TTITLE14=It´s Raining Men - Martha Wash and Ru Paul
TTITLE15=Dizzy - Scooter Lee
TTITLE16=Rose Farden - Scooter Lee
TTITLE17=Honky Tonk Dancing Machine - Tracy Byrd
TTITLE18=It´s Raining Men - Weather Girls
TTITLE19=Love is in the Air - John Paul Young
TTITLE20=Surfin USA - The Baech Boys
TTITLE21=Sloop John B. - The Beach Boys
EXTD=
EXTT0=
EXTT1=
EXTT2=
EXTT3=
EXTT4=
EXTT5=
EXTT6=
EXTT7=
EXTT8=
EXTT9=
EXTT10=
EXTT11=
EXTT12=
EXTT13=
EXTT14=
EXTT15=
EXTT16=
EXTT17=
EXTT18=
EXTT19=
EXTT20=
EXTT21=
PLAYORDER=
